<?xml version="1.0" standalone="no"?>
<!DOCTYPE svg PUBLIC "-//W3C//DTD SVG 20010904//EN"
 "http://www.w3.org/TR/2001/REC-SVG-20010904/DTD/svg10.dtd">
<svg version="1.0" xmlns="http://www.w3.org/2000/svg"
 width="487.000000pt" height="102.000000pt" viewBox="0 0 487.000000 102.000000"
 preserveAspectRatio="xMidYMid meet">

<g transform="translate(0.000000,102.000000) scale(0.100000,-0.100000)"
fill="#ffffff" stroke="none">
<path d="M53 992 c-30 -19 -35 -72 -40 -367 -3 -165 -1 -358 5 -429 12 -173 3
-166 214 -166 155 0 159 1 183 25 19 18 25 35 25 67 0 24 3 60 6 80 l7 38 54
-88 c81 -130 63 -122 285 -122 111 0 197 4 209 10 37 20 22 55 -84 197 -57 76
-120 158 -141 182 l-36 43 47 42 c103 89 153 140 153 155 0 35 -21 41 -151 41
l-128 0 -104 -94 -104 -94 -5 212 c-6 208 -12 248 -42 268 -15 10 -338 10
-353 0z m352 -36 c13 -20 18 -68 23 -243 6 -192 9 -218 23 -218 9 0 63 42 119
93 l103 93 120 -3 c81 -2 122 -7 124 -15 2 -6 -41 -51 -96 -99 -56 -49 -101
-94 -101 -100 0 -7 28 -47 63 -91 105 -129 217 -284 217 -298 0 -22 -25 -25
-209 -25 -127 0 -182 4 -193 13 -9 6 -45 58 -82 115 -36 56 -69 102 -74 102
-10 0 -22 -80 -22 -147 0 -30 -6 -49 -20 -63 -18 -18 -33 -20 -168 -20 -110 0
-153 4 -167 14 -24 17 -34 146 -34 461 0 263 10 417 29 439 10 13 40 16 171
16 157 0 159 0 174 -24z"/>
<path d="M1470 723 c-163 -25 -293 -110 -345 -225 -38 -85 -41 -197 -6 -275
41 -93 144 -168 273 -198 160 -38 485 2 549 66 41 41 11 159 -40 159 -10 0
-45 -12 -77 -26 -43 -20 -81 -28 -140 -32 -74 -4 -82 -2 -108 19 -19 17 -29
37 -33 68 -6 44 -6 44 22 37 36 -9 232 -9 270 0 48 11 101 44 118 74 23 39 22
131 -2 178 -43 84 -109 126 -230 148 -71 12 -194 16 -251 7z m285 -36 c28 -8
64 -21 80 -30 101 -52 149 -195 90 -266 -44 -51 -106 -65 -272 -58 -79 3 -143
1 -143 -4 0 -47 25 -112 53 -135 30 -25 36 -26 122 -22 72 3 103 10 153 32 60
28 63 28 82 11 24 -22 27 -86 5 -108 -22 -22 -128 -55 -218 -67 -327 -43 -549
55 -587 261 -12 66 0 141 32 207 47 93 172 168 328 196 44 8 223 -3 275 -17z"/>
<path d="M1557 560 c-16 -13 -29 -35 -33 -58 -3 -20 -8 -45 -11 -54 -4 -16 4
-18 65 -18 56 0 72 4 87 20 22 24 22 73 0 106 -20 31 -72 32 -108 4z m84 -10
c22 -12 27 -68 7 -88 -7 -7 -34 -12 -60 -12 -42 0 -48 3 -48 20 0 26 26 77 42
83 21 9 38 8 59 -3z"/>
<path d="M2415 719 c-146 -24 -278 -115 -327 -226 -28 -63 -34 -166 -14 -235
19 -65 83 -142 151 -183 67 -39 183 -65 291 -65 168 0 345 36 392 80 44 41 16
160 -37 160 -10 0 -45 -12 -77 -26 -39 -18 -83 -28 -131 -32 -111 -7 -137 10
-159 102 -7 28 -6 29 29 22 20 -4 84 -7 143 -7 180 0 253 40 262 145 2 29 -1
70 -7 89 -17 51 -84 122 -133 142 -100 40 -263 54 -383 34z m235 -19 c36 -6
87 -18 114 -27 99 -32 164 -124 153 -219 -11 -99 -86 -130 -301 -121 l-138 5
6 -44 c13 -99 46 -124 159 -124 69 1 89 6 186 46 l44 18 19 -24 c27 -33 21
-87 -12 -111 -42 -31 -175 -60 -310 -66 -107 -5 -137 -3 -207 15 -131 33 -218
97 -259 189 -26 59 -24 185 4 248 75 164 298 253 542 215z"/>
<path d="M2522 557 c-22 -24 -42 -75 -42 -109 0 -15 10 -18 63 -18 82 0 107
17 107 71 0 74 -79 108 -128 56z m92 -13 c23 -22 20 -71 -3 -84 -11 -5 -38
-10 -60 -10 -39 0 -41 2 -41 30 0 36 38 80 69 80 11 0 27 -7 35 -16z"/>
<path d="M3625 717 c-52 -18 -85 -35 -112 -60 -22 -19 -23 -19 -29 -1 -19 52
-25 54 -208 54 -94 0 -176 -4 -183 -8 -6 -4 -17 -20 -22 -36 -16 -40 -25 -299
-16 -449 6 -114 10 -131 30 -155 23 -26 26 -27 156 -30 150 -4 188 1 221 27
22 18 23 26 28 199 4 159 7 182 24 201 25 28 70 27 90 -1 13 -18 16 -56 16
-209 0 -167 2 -188 18 -202 16 -15 45 -17 194 -17 165 0 176 1 194 21 18 20
19 38 17 244 -1 205 -3 226 -23 274 -26 58 -74 105 -139 134 -57 25 -198 33
-256 14z m240 -31 c64 -27 106 -66 131 -121 23 -50 24 -64 27 -270 2 -204 1
-217 -17 -231 -26 -19 -335 -21 -354 -2 -8 8 -12 67 -12 199 0 173 -1 188 -21
213 -27 34 -77 35 -116 2 l-28 -24 -5 -181 c-4 -156 -7 -183 -23 -198 -15 -16
-37 -18 -173 -18 -199 0 -189 -9 -199 182 -9 159 1 387 18 423 12 25 12 25
176 28 110 2 168 -1 177 -9 7 -6 16 -26 20 -45 l6 -34 27 20 c93 72 151 92
251 86 42 -2 93 -11 115 -20z"/>
<path d="M4455 719 c-108 -14 -201 -80 -256 -181 -32 -60 -34 -68 -34 -163 0
-89 3 -106 28 -156 32 -66 93 -126 169 -166 47 -25 63 -28 148 -28 83 0 102 3
150 27 74 37 137 100 173 176 27 59 29 69 25 160 -3 84 -8 104 -33 150 -72
133 -214 202 -370 181z m200 -52 c196 -101 245 -354 100 -515 -121 -134 -329
-144 -468 -23 -20 18 -51 63 -69 99 -29 59 -33 76 -33 147 1 93 22 149 80 214
73 81 151 113 265 108 56 -3 87 -10 125 -30z"/>
<path d="M4422 538 c-8 -8 -12 -60 -12 -170 0 -207 0 -207 142 -101 106 78
118 89 118 110 0 14 -207 173 -225 173 -6 0 -16 -5 -23 -12z m127 -88 c50 -39
91 -74 91 -78 0 -8 -184 -152 -194 -152 -3 0 -6 68 -6 150 0 83 4 150 9 150 5
0 50 -32 100 -70z"/>
</g>
</svg>
